<svg width="25" height="26" viewBox="0 0 25 26" fill="none" xmlns="http://www.w3.org/2000/svg">
<path fill-rule="evenodd" clip-rule="evenodd" d="M17.1424 14.587C16.9003 14.3924 16.6169 14.2555 16.3136 14.1866C16.0104 14.1177 15.6954 14.1186 15.3926 14.1894C14.9377 14.3778 14.6438 15.0892 14.3498 15.445C14.2878 15.5303 14.1967 15.5901 14.0937 15.6132C13.9906 15.6363 13.8826 15.6212 13.7899 15.5706C12.1244 14.9204 10.7284 13.7282 9.82854 12.1875C9.75179 12.0913 9.71547 11.9692 9.72722 11.8469C9.73897 11.7246 9.79787 11.6117 9.89153 11.5318C10.2194 11.2083 10.4601 10.8076 10.5914 10.3669C10.6206 9.8807 10.5088 9.39642 10.2695 8.97179C10.0844 8.37648 9.73229 7.84639 9.25463 7.44417C9.00827 7.33374 8.73512 7.29672 8.46811 7.33756C8.20111 7.37841 7.95167 7.49538 7.74988 7.67436C7.39956 7.97559 7.1215 8.3513 6.93618 8.77382C6.75086 9.19634 6.66299 9.65491 6.67905 10.1158C6.68013 10.3746 6.71304 10.6322 6.77703 10.8831C6.93955 11.4857 7.18948 12.0614 7.51891 12.592C7.75659 12.9985 8.01592 13.392 8.29579 13.7709C9.20532 15.0153 10.3486 16.0719 11.6622 16.8819C12.3214 17.2936 13.026 17.6283 13.7619 17.8794C14.5264 18.2248 15.3705 18.3574 16.2045 18.2631C16.6797 18.1914 17.1299 18.0044 17.5156 17.7185C17.9013 17.4327 18.2105 17.0568 18.4162 16.6238C18.537 16.3623 18.5737 16.0699 18.5211 15.7868C18.3952 15.2078 17.6183 14.866 17.1424 14.587Z" fill="white"/>
<path d="M0.121338 25.3786L1.89905 18.7799C0.46537 16.2093 0.00987509 13.2097 0.616151 10.3314C1.22243 7.45319 2.8498 4.88937 5.19966 3.11046C7.54951 1.33154 10.4642 0.456852 13.4089 0.646893C16.3536 0.836935 19.1308 2.07896 21.2309 4.14506C23.3309 6.21115 24.6129 8.96273 24.8417 11.8949C25.0705 14.827 24.2306 17.743 22.4763 20.1078C20.722 22.4727 18.1708 24.1276 15.291 24.7691C12.4111 25.4105 9.39579 24.9954 6.79826 23.5999L0.121338 25.3786ZM7.12021 21.1306L7.53314 21.3747C9.41459 22.4862 11.6121 22.9461 13.7832 22.6828C15.9543 22.4196 17.977 21.448 19.5362 19.9193C21.0954 18.3907 22.1034 16.391 22.4032 14.2318C22.703 12.0726 22.2777 9.87517 21.1936 7.98202C20.1095 6.08886 18.4275 4.60629 16.4097 3.76535C14.3919 2.92441 12.1516 2.77233 10.0381 3.33281C7.9245 3.8933 6.05632 5.13486 4.72467 6.86402C3.39301 8.59319 2.67268 10.7128 2.67593 12.8926C2.67416 14.7 3.17569 16.4724 4.12469 18.0126L4.38365 18.4381L3.38981 22.1211L7.12021 21.1306Z" fill="white"/>
</svg>
